# xmcd
#
# Track frame offsets:
#	150
#	18720
#	31602
#	48650
#	66459
#	91596
#	111405
#	128395
#	149045
#	166795
#	178347
#	192482
#	205067
#	221657
#	237540
#	256115
#	274397
#	288425
#	306890
#	325267
#
# Disc length: 4496 seconds
#
# Revision: 0
# Processed by: cddbd v1.5.1PL2 Copyright (c) Steve Scherf et al.
# Submitted via: dBpowerAMP V4.0
#
DISCID=35118e14
DTITLE=Various Artist - Novo Millennium - Romântico
DYEAR=1900
DGENRE=MPB
TTITLE0=Se eu não te amasse tanto assim - Ivete Sangalo
TTITLE1=Faz parte do meu show - Cazuza
TTITLE2=Da cor do pecado - Luciano Mello
TTITLE3=Preciso dizer que te amo - Cássia Eller
TTITLE4=Luz dos olhos - Nando Reis
TTITLE5=Colombina (versão acústica) - Ed Motta
TTITLE6=Todo azul do mar - 14 bis
TTITLE7=O amor em pedaços - Rita Lee e Pato Fu
TTITLE8=Sonho real - Lô Borges
TTITLE9=Não quero dinheiro (Só quero amar) - Tim Maia
TTITLE10=Eu te amo você - Marina Lima
TTITLE11=Pérola Negra - Luis Melodia
TTITLE12=Eu só sei amar assim - Zizi Possi
TTITLE13=Lua e estrela - Caetano Veloso
TTITLE14=Besame - Leila Pinheiro
TTITLE15=Bem maior - Roupa Nova
TTITLE16=Pare, olhe, escute - Sandra de Sá e Ed Motta
TTITLE17=Imagine - Paulo Ricardo
TTITLE18=O olhar do amor - Paula Lima
TTITLE19=Minha teimosia, uma arma pra te conquistar - Jorge Ben Jor
EXTD=
EXTT0=
EXTT1=
EXTT2=
EXTT3=
EXTT4=
EXTT5=
EXTT6=
EXTT7=
EXTT8=
EXTT9=
EXTT10=
EXTT11=
EXTT12=
EXTT13=
EXTT14=
EXTT15=
EXTT16=
EXTT17=
EXTT18=
EXTT19=
PLAYORDER=
